<svg xmlns="http://www.w3.org/2000/svg" viewBox="0 0 426.67 426.67"><defs><style>.cls-1{fill:#fff;}</style></defs><g id="圖層_2" data-name="圖層 2"><g id="Capa_1" data-name="Capa 1"><path class="cls-1" d="M384,0H128A42.66,42.66,0,0,0,85.33,42.67v256A42.66,42.66,0,0,0,128,341.33H384a42.66,42.66,0,0,0,42.67-42.66v-256A42.66,42.66,0,0,0,384,0ZM341.33,106.67h-64V224A53.76,53.76,0,1,1,256,181.55V64h85.33Z"/><path class="cls-1" d="M42.67,85.33H0V384a42.66,42.66,0,0,0,42.67,42.67H341.33V384H42.67Z"/></g></g></svg>