<svg xmlns="http://www.w3.org/2000/svg" viewBox="0 0 425.65 192.14"><defs><style>.cls-1{fill:#ffe39f;}</style></defs><g id="圖層_2" data-name="圖層 2"><g id="圖層_1-2" data-name="圖層 1"><g id="圖層_2-2" data-name="圖層 2"><g id="圖層_1-2-2" data-name="圖層 1-2"><path class="cls-1" d="M410.28,58.91h0a52.65,52.65,0,0,0-74.35,0L319.69,75.14,303.46,58.91a52.65,52.65,0,0,0-74.35,0h0L212.84,75.18,196.57,58.91h0a52.65,52.65,0,0,0-74.35,0h0L106,75.14l-3.73,3.73-33.48,33.4h0a22.92,22.92,0,0,1-32.37,0h0a22.87,22.87,0,0,1-6.6-18.57h0v-45l-.13.07V0H0V96.09H0a52.57,52.57,0,0,0,89.73,37.17l16.77-15.69,15.69,15.69h0a52.64,52.64,0,0,0,74.34,0h0L212.84,117l16.26,16.27h0a52.63,52.63,0,0,0,74.35,0L319.69,117l.91.91v74.23h29.68V143.45a52.68,52.68,0,0,0,60-10.18h0A52.64,52.64,0,0,0,410.28,58.91ZM159.86,119a22.89,22.89,0,1,1,22.89-22.89h0A22.88,22.88,0,0,1,159.87,119Zm106.38,0a22.89,22.89,0,1,1,22.89-22.89h0A22.88,22.88,0,0,1,266.25,119Zm106.85,0a22.88,22.88,0,1,1,.06,0Z"/></g></g></g></g></svg>