<svg xmlns="http://www.w3.org/2000/svg" viewBox="0 0 448.14 416"><defs><style>.cls-1{fill:#fff;}</style></defs><g id="圖層_2" data-name="圖層 2"><g id="Capa_1" data-name="Capa 1"><path class="cls-1" d="M436.77,135.78c-13.15-27-35.75-42.08-57.6-56.71-16.29-10.91-31.65-21.21-42.53-36l-2-2.72c-6.4-8.6-13.69-18.36-14.81-26.56S312.16-.22,302.88,0A16,16,0,0,0,288,16V301.12A92.55,92.55,0,0,0,240,288c-44.1,0-80,28.7-80,64s35.9,64,80,64,80-28.7,80-64V165.5c24,9.19,63.36,32.58,74.18,87.2a87,87,0,0,1-6.18,8.74,16,16,0,1,0,24,21.12c20-22.75,33.82-58.78,36-94C449,171.17,445.15,152.93,436.77,135.78Z"/><path class="cls-1" d="M16,32H208a16,16,0,0,0,0-32H16a16,16,0,0,0,0,32Z"/><path class="cls-1" d="M16,128H208a16,16,0,0,0,0-32H16a16,16,0,0,0,0,32Z"/><path class="cls-1" d="M112,192H16a16,16,0,0,0,0,32h96a16,16,0,0,0,0-32Z"/><path class="cls-1" d="M112,288H16a16,16,0,0,0,0,32h96a16,16,0,0,0,0-32Z"/></g></g></svg>