<svg xmlns="http://www.w3.org/2000/svg" viewBox="0 0 427.16 512"><defs><style>.cls-1{fill:#fff;}</style></defs><g id="圖層_2" data-name="圖層 2"><g id="圖層_1-2" data-name="圖層 1"><path class="cls-1" d="M210.35,246.63c33.88,0,63.22-12.15,87.2-36.13s36.12-53.3,36.12-87.19S321.52,60.1,297.54,36.12,244.23,0,210.35,0s-63.22,12.15-87.19,36.13S87,89.43,87,123.31s12.16,63.23,36.13,87.2S176.48,246.63,210.35,246.63Z"/><path class="cls-1" d="M426.13,393.7A304,304,0,0,0,422,361.35a254.26,254.26,0,0,0-8-32.53,160.71,160.71,0,0,0-13.37-30.33,114.34,114.34,0,0,0-20.16-26.28,89.06,89.06,0,0,0-29-18.2,100.07,100.07,0,0,0-37-6.69c-5.23,0-10.28,2.14-20.05,8.5-6,3.92-13,8.45-20.87,13.46-6.71,4.27-15.8,8.28-27,11.9a104.91,104.91,0,0,1-66.09,0c-11.21-3.62-20.29-7.62-27-11.89-7.77-5-14.8-9.5-20.9-13.47-9.75-6.36-14.81-8.5-20-8.5a99.87,99.87,0,0,0-37,6.7,88.75,88.75,0,0,0-29,18.19A114.74,114.74,0,0,0,26.5,298.49a160.51,160.51,0,0,0-13.37,30.34,255.37,255.37,0,0,0-8,32.52A302.88,302.88,0,0,0,1,393.71c-.68,9.8-1,20-1,30.24,0,26.73,8.5,48.36,25.25,64.32C41.8,504,63.69,512,90.32,512H336.85c26.62,0,48.51-8,65.06-23.73,16.76-15.95,25.25-37.59,25.25-64.32C427.16,413.63,426.81,403.45,426.13,393.7Z"/></g></g></svg>